<svg class="icon icon-arrow" viewBox="0 0 75 40" fill="none">
  <path d="M71.1652 21.1223C71.014 21.1167 70.9329 21.1121 70.8517 21.1121C59.2833 21.1158 12.9398 21.1195 1.37044 21.1251C1.03083 21.1251 0.701476 21.1075 0.422506 20.882C0.0483687 20.5796 -0.0925158 20.099 0.0614309 19.6519C0.221909 19.1834 0.623103 18.8986 1.14932 18.8977C2.60202 18.894 60.639 18.8884 70.8162 18.8847C70.9077 18.8847 70.9991 18.88 71.1689 18.8763L70.9217 18.6305C65.3516 13.0921 59.7815 7.55179 54.2077 2.01616C53.9213 1.73135 53.7431 1.41779 53.7851 1.0096C53.8299 0.561512 54.0687 0.243308 54.4895 0.0818872C54.9084 -0.0776786 55.2984 -0.00160658 55.6427 0.288766C55.6838 0.324019 55.7211 0.363911 55.7593 0.401947C62.0385 6.64542 68.3176 12.8889 74.5968 19.1324C75.0306 19.5638 75.1193 20.0759 74.8412 20.562C74.7881 20.6547 74.7153 20.7392 74.6397 20.8143C68.3298 27.0903 62.0189 33.3662 55.7071 39.6403C55.2798 40.0652 54.65 40.119 54.2021 39.7785C53.7478 39.4343 53.6265 38.8007 53.9325 38.3016C54.0118 38.1717 54.1284 38.0632 54.2376 37.9547C59.7946 32.4274 65.3525 26.901 70.9105 21.3756L71.1642 21.1232L71.1652 21.1223Z" fill="currentColor"/>
</svg>

